<mxfile host="app.diagrams.net" modified="2021-02-26T00:59:34.726Z" agent="5.0 (Windows NT 10.0; Win64; x64) AppleWebKit/537.36 (KHTML, like Gecko) Chrome/88.0.4324.192 Safari/537.36" etag="BMAq87QrUBsF5g3GpoZX" version="14.4.3" type="github">
  <diagram id="GjpOPS8GUbDMK-W_BYCK" name="Page-1">
    <mxGraphModel dx="593" dy="313" grid="1" gridSize="10" guides="1" tooltips="1" connect="1" arrows="1" fold="1" page="1" pageScale="1" pageWidth="850" pageHeight="1100" math="0" shadow="0">
      <root>
        <mxCell id="0" />
        <mxCell id="1" parent="0" />
        <mxCell id="5hr4HWsf4Ftkd_aSTjP--9" style="edgeStyle=orthogonalEdgeStyle;rounded=0;orthogonalLoop=1;jettySize=auto;html=1;exitX=0.5;exitY=0;exitDx=0;exitDy=0;entryX=0.5;entryY=1;entryDx=0;entryDy=0;" edge="1" parent="1" source="5hr4HWsf4Ftkd_aSTjP--1" target="5hr4HWsf4Ftkd_aSTjP--4">
          <mxGeometry relative="1" as="geometry" />
        </mxCell>
        <mxCell id="5hr4HWsf4Ftkd_aSTjP--1" value="Sensor" style="ellipse;whiteSpace=wrap;html=1;aspect=fixed;rotation=0;" vertex="1" parent="1">
          <mxGeometry x="30" y="505" width="40" height="40" as="geometry" />
        </mxCell>
        <mxCell id="5hr4HWsf4Ftkd_aSTjP--10" style="edgeStyle=orthogonalEdgeStyle;rounded=0;orthogonalLoop=1;jettySize=auto;html=1;exitX=0.5;exitY=0;exitDx=0;exitDy=0;entryX=0.5;entryY=1;entryDx=0;entryDy=0;" edge="1" parent="1" source="5hr4HWsf4Ftkd_aSTjP--2" target="5hr4HWsf4Ftkd_aSTjP--4">
          <mxGeometry relative="1" as="geometry" />
        </mxCell>
        <mxCell id="5hr4HWsf4Ftkd_aSTjP--2" value="Sensor" style="ellipse;whiteSpace=wrap;html=1;aspect=fixed;rotation=0;" vertex="1" parent="1">
          <mxGeometry x="85" y="505" width="40" height="40" as="geometry" />
        </mxCell>
        <mxCell id="5hr4HWsf4Ftkd_aSTjP--11" style="edgeStyle=orthogonalEdgeStyle;rounded=0;orthogonalLoop=1;jettySize=auto;html=1;exitX=0.5;exitY=0;exitDx=0;exitDy=0;entryX=0.5;entryY=1;entryDx=0;entryDy=0;" edge="1" parent="1" source="5hr4HWsf4Ftkd_aSTjP--3" target="5hr4HWsf4Ftkd_aSTjP--4">
          <mxGeometry relative="1" as="geometry" />
        </mxCell>
        <mxCell id="5hr4HWsf4Ftkd_aSTjP--3" value="Sensor" style="ellipse;whiteSpace=wrap;html=1;aspect=fixed;rotation=0;" vertex="1" parent="1">
          <mxGeometry x="140" y="505" width="40" height="40" as="geometry" />
        </mxCell>
        <mxCell id="5hr4HWsf4Ftkd_aSTjP--13" style="edgeStyle=orthogonalEdgeStyle;rounded=0;orthogonalLoop=1;jettySize=auto;html=1;exitX=0.75;exitY=0;exitDx=0;exitDy=0;entryX=0.5;entryY=1;entryDx=0;entryDy=0;" edge="1" parent="1" source="5hr4HWsf4Ftkd_aSTjP--4" target="5hr4HWsf4Ftkd_aSTjP--12">
          <mxGeometry relative="1" as="geometry">
            <mxPoint x="138" y="340" as="targetPoint" />
          </mxGeometry>
        </mxCell>
        <mxCell id="5hr4HWsf4Ftkd_aSTjP--4" value="Arduino" style="shape=process;whiteSpace=wrap;html=1;backgroundOutline=1;rotation=0;" vertex="1" parent="1">
          <mxGeometry x="40" y="400" width="130" height="40" as="geometry" />
        </mxCell>
        <mxCell id="5hr4HWsf4Ftkd_aSTjP--16" style="edgeStyle=orthogonalEdgeStyle;rounded=0;orthogonalLoop=1;jettySize=auto;html=1;exitX=0.5;exitY=0;exitDx=0;exitDy=0;entryX=0.707;entryY=1.059;entryDx=0;entryDy=0;entryPerimeter=0;" edge="1" parent="1" source="5hr4HWsf4Ftkd_aSTjP--12" target="5hr4HWsf4Ftkd_aSTjP--15">
          <mxGeometry relative="1" as="geometry" />
        </mxCell>
        <mxCell id="5hr4HWsf4Ftkd_aSTjP--12" value="ESP" style="shape=hexagon;perimeter=hexagonPerimeter2;whiteSpace=wrap;html=1;fixedSize=1;" vertex="1" parent="1">
          <mxGeometry x="110" y="260" width="50" height="50" as="geometry" />
        </mxCell>
        <mxCell id="5hr4HWsf4Ftkd_aSTjP--14" value="" style="shape=flexArrow;endArrow=classic;html=1;" edge="1" parent="1">
          <mxGeometry width="50" height="50" relative="1" as="geometry">
            <mxPoint x="60" y="400" as="sourcePoint" />
            <mxPoint x="60" y="240" as="targetPoint" />
          </mxGeometry>
        </mxCell>
        <mxCell id="5hr4HWsf4Ftkd_aSTjP--15" value="Raspberry Pi" style="shape=parallelogram;perimeter=parallelogramPerimeter;whiteSpace=wrap;html=1;fixedSize=1;" vertex="1" parent="1">
          <mxGeometry x="45" y="160" width="120" height="60" as="geometry" />
        </mxCell>
        <mxCell id="5hr4HWsf4Ftkd_aSTjP--17" value="MQTT&lt;br&gt;(Wireless)" style="text;html=1;align=center;verticalAlign=middle;resizable=0;points=[];autosize=1;" vertex="1" parent="1">
          <mxGeometry x="130" y="325" width="70" height="30" as="geometry" />
        </mxCell>
        <mxCell id="5hr4HWsf4Ftkd_aSTjP--18" value="Serial&lt;br&gt;(Cable)" style="text;html=1;align=center;verticalAlign=middle;resizable=0;points=[];autosize=1;" vertex="1" parent="1">
          <mxGeometry y="325" width="50" height="30" as="geometry" />
        </mxCell>
        <mxCell id="5hr4HWsf4Ftkd_aSTjP--19" value="&lt;b&gt;&amp;lt;OR&amp;gt;&lt;/b&gt;" style="text;html=1;align=center;verticalAlign=middle;resizable=0;points=[];autosize=1;" vertex="1" parent="1">
          <mxGeometry x="70" y="330" width="50" height="20" as="geometry" />
        </mxCell>
        <mxCell id="5hr4HWsf4Ftkd_aSTjP--21" value="Node-Red" style="rounded=1;whiteSpace=wrap;html=1;" vertex="1" parent="1">
          <mxGeometry x="55" y="60" width="100" height="50" as="geometry" />
        </mxCell>
      </root>
    </mxGraphModel>
  </diagram>
</mxfile>
